#!OML:ASF G:\JayActor3\Patient Classification 1\Patient 1\Session 6\male.ASF
:FULLY-SPECIFIED
:DEGREES
848
root 17.9174 15.2877 -19.9019 -181.616 -61.3724 -169.697
lowerback 26.4208 -1.37583 4.66801
upperback 5.86879 -1.22769 -0.200459
thorax -8.18212 -0.958008 -2.46693
lowerneck 16.126 3.38463 2.47649
upperneck -12.9929 4.9139 -1.49287
head -6.49581 2.36971 -1.37549
rclavicle 2.74323e-014 -3.65764e-014
rhumerus -42.719 16.1134 -89.0649
rradius 67.0279
rwrist -6.36866
rhand -24.0543 3.7771
rfingers 7.12502
rthumb 2.42496 -26.1889
lclavicle 2.74323e-014 -3.65764e-014
lhumerus -52.6372 -16.8567 88.181
lradius 68.4145
lwrist 43.6165
lhand -27.6371 -4.16608
lfingers 7.12502
lthumb -1.03543 25.8112
rfemur -40.0877 2.88601 28.4025
rtibia 81.1965
rfoot -4.05939 -16.8719
rtoes -7.51439
lfemur -44.4007 8.94849 -21.063
ltibia 24.1249
lfoot -9.71555 1.86517
ltoes -14.5148
849
root 17.7908 15.2819 -19.9598 -180.148 -61.9873 -171.488
lowerback 26.664 -1.38417 3.81959
upperback 5.85115 -1.46737 -0.370316
thorax -8.33571 -1.05715 -2.08465
lowerneck 15.8847 3.31821 2.56186
upperneck -13.1095 4.83146 -1.5233
head -6.49163 2.32624 -1.3875
rclavicle -2.8625e-014 8.74653e-015
rhumerus -43.3512 15.3887 -88.9597
rradius 67.95
rwrist -6.41424
rhand -24.1209 3.704
rfingers 7.12502
rthumb 2.36063 -26.2627
lclavicle -2.8625e-014 8.74653e-015
lhumerus -52.7983 -16.7779 87.9831
lradius 68.4948
lwrist 43.1811
lhand -27.3534 -4.24365
lfingers 7.12502
lthumb -0.761381 25.7347
rfemur -42.167 2.42002 27.231
rtibia 84.1305
rfoot -0.891591 -16.9384
rtoes -4.38781
lfemur -44.433 9.18303 -22.4168
ltibia 24.7868
lfoot -8.40366 0.750431
ltoes -12.7216
850
root 17.6704 15.2708 -20.0204 -178.751 -62.6494 -173.154
lowerback 26.9413 -1.39304 3.04019
upperback 5.79599 -1.68556 -0.49547
thorax -8.54073 -1.14556 -1.69679
lowerneck 15.6042 3.24368 2.63587
upperneck -13.2326 4.73474 -1.54496
head -6.48379 2.27529 -1.39289
rclavicle -4.25399e-014 -1.98785e-015
rhumerus -44.0925 14.5942 -88.897
rradius 68.8339
rwrist -6.49278
rhand -24.2863 3.66547
rfingers 7.12502
rthumb 2.20088 -26.3029
lclavicle -4.25399e-014 -1.98785e-015
lhumerus -52.9333 -16.8141 87.8951
lradius 68.4427
lwrist 42.7525
lhand -27.1097 -4.31186
lfingers 7.12502
lthumb -0.526018 25.6672
rfemur -44.2761 1.96012 26.1644
rtibia 86.8645
rfoot 1.48005 -16.901
rtoes -1.60581
lfemur -44.5626 9.32047 -23.6369
ltibia 25.6174
lfoot -7.17553 0.0887767
ltoes -11.3008
851
root 17.5537 15.2574 -20.0827 -177.647 -63.3093 -174.443
lowerback 27.2155 -1.40975 2.44525
upperback 5.71236 -1.85913 -0.553028
thorax -8.77057 -1.2138 -1.35304
lowerneck 15.2766 3.16656 2.68098
upperneck -13.3109 4.62798 -1.55203
head -6.45489 2.22015 -1.3864
rclavicle 2.34566e-014 -7.15625e-015
rhumerus -44.879 13.7809 -88.8738
rradius 69.6184
rwrist -6.57841
rhand -24.5177 3.6874
rfingers 7.12502
rthumb 1.97741 -26.2832
lclavicle 2.34566e-014 -7.15625e-015
lhumerus -53.018 -16.9397 87.9086
lradius 68.2418
lwrist 42.3548
lhand -26.9036 -4.3819
lfingers 7.12502
lthumb -0.326979 25.5976
rfemur -46.3463 1.56917 25.3289
rtibia 89.2858
rfoot 2.91263 -16.8566
rtoes 0.486083
lfemur -44.7762 9.45087 -24.6421
ltibia 26.6032
lfoot -6.05246 -0.252724
ltoes -10.5508
852
root 17.4389 15.2447 -20.1441 -176.995 -63.9397 -175.176
lowerback 27.4635 -1.45369 2.10558
upperback 5.60173 -1.98953 -0.530751
thorax -9.01627 -1.2642 -1.08091
lowerneck 14.9002 3.09859 2.68084
upperneck -13.2977 4.52291 -1.55155
head -6.38947 2.16885 -1.36809
rclavicle -9.34288e-015 5.1684e-015
rhumerus -45.6498 13.0281 -88.8969
rradius 70.2423
rwrist -6.64878
rhand -24.7732 3.75005
rfingers 7.12502
rthumb 1.73061 -26.2227
lclavicle -9.34288e-015 5.1684e-015
lhumerus -53.0517 -17.0907 88.0076
lradius 67.8925
lwrist 42.014
lhand -26.7273 -4.44344
lfingers 7.12502
lthumb -0.156667 25.5362
rfemur -48.3367 1.29912 24.7958
rtibia 91.3038
rfoot 3.46474 -16.8929
rtoes 1.77557
lfemur -45.0867 9.60707 -25.357
ltibia 27.7252
lfoot -5.05574 -0.542664
ltoes -9.91954
853
root 17.325 15.234 -20.2015 -176.831 -64.5085 -175.308
lowerback 27.6792 -1.53265 2.03932
upperback 5.46216 -2.07934 -0.439306
thorax -9.28063 -1.29938 -0.902202
lowerneck 14.4325 3.04409 2.64028
upperneck -13.1245 4.42473 -1.55273
head -6.25819 2.12551 -1.34031
rclavicle -4.07509e-014 -7.95139e-015
rhumerus -46.3307 12.3905 -88.9672
rradius 70.6323
rwrist -6.66777
rhand -25.0238 3.84646
rfingers 7.12502
rthumb 1.48855 -26.1281
lclavicle -4.07509e-014 -7.95139e-015
lhumerus -53.0379 -17.225 88.1711
lradius 67.4073
lwrist 41.7592
lhand -26.5873 -4.50997
lfingers 7.12502
lthumb -0.0215037 25.4698
rfemur -50.246 1.19928 24.5505
rtibia 92.8659
rfoot 3.26352 -17.0732
rtoes 2.38891
lfemur -45.4823 9.80445 -25.779
ltibia 28.892
lfoot -4.18393 -0.939528
ltoes -9.11357
854
root 17.2113 15.2254 -20.2528 -177.022 -64.9937 -174.984
lowerback 27.8556 -1.642 2.1859
upperback 5.29626 -2.14079 -0.309139
thorax -9.55883 -1.3252 -0.812166
lowerneck 13.8322 3.00413 2.57384
upperneck -12.7459 4.33681 -1.56359
head -6.03955 2.092 -1.30694
rclavicle 1.41137e-014 1.66979e-014
rhumerus -46.8576 11.9043 -89.0835
rradius 70.7297
rwrist -6.60758
rhand -25.2523 3.94271
rfingers 7.12502
rthumb 1.26791 -26.0333
lclavicle 1.41137e-014 1.66979e-014
lhumerus -52.9805 -17.323 88.3789
lradius 66.8065
lwrist 41.615
lhand -26.4912 -4.59455
lfingers 7.12502
lthumb 0.0713374 25.3852
rfemur -52.1012 1.28443 24.4857
rtibia 93.979
rfoot 2.53135 -17.4019
rtoes 2.55731
lfemur -45.983 10.018 -25.9819
ltibia 30.1235
lfoot -3.48611 -1.4675
ltoes -8.06948
855
root 17.0986 15.2291 -20.2967 -177.353 -65.3895 -174.461
lowerback 28.0038 -1.77052 2.4466
upperback 5.11715 -2.19213 -0.179463
thorax -9.84176 -1.34958 -0.791486
lowerneck 13.0654 2.97568 2.50537
upperneck -12.1458 4.25921 -1.59182
head -5.7232 2.06723 -1.2736
rclavicle 7.11649e-014 -1.90833e-014
rhumerus -47.1757 11.587 -89.2385
rradius 70.4995
rwrist -6.46534
rhand -25.4527 4.02604
rfingers 7.12502
rthumb 1.07433 -25.951
lclavicle 7.11649e-014 -1.90833e-014
lhumerus -52.8823 -17.383 88.607
lradius 66.1243
lwrist 41.5967
lhand -26.4422 -4.68047
lfingers 7.12502
lthumb 0.118667 25.2992
rfemur -53.8479 1.52012 24.4511
rtibia 94.5869
rfoot 1.53536 -17.8131
rtoes 2.48414
lfemur -46.4899 10.189 -26.0572
ltibia 31.3423
lfoot -2.98167 -2.02539
ltoes -6.72009
856
root 16.9833 15.2252 -20.3359 -177.619 -65.6865 -173.992
lowerback 28.1356 -1.89212 2.7139
upperback 4.94047 -2.236 -0.0834068
thorax -10.116 -1.37209 -0.81467
lowerneck 12.1319 2.95442 2.45859
upperneck -11.3408 4.19171 -1.63726
head -5.31555 2.04876 -1.24451
rclavicle -2.24627e-014 1.39149e-014
rhumerus -47.2664 11.4328 -89.4238
rradius 69.9413
rwrist -6.27553
rhand -25.628 4.06851
rfingers 7.12502
rthumb 0.905077 -25.9093
lclavicle -2.24627e-014 1.39149e-014
lhumerus -52.7483 -17.4286 88.8381
lradius 65.3948
lwrist 41.7031
lhand -26.419 -4.76135
lfingers 7.12502
lthumb 0.141066 25.2183
rfemur -55.5589 1.88 24.3252
rtibia 94.8439
rfoot 0.334844 -18.2104
rtoes 2.44121
lfemur -46.998 10.2743 -26.0972
ltibia 32.548
lfoot -2.65218 -2.46118
ltoes -5.20146
857
root 16.8666 15.2236 -20.3721 -177.677 -65.8972 -173.768
lowerback 28.2647 -1.98814 2.90032
upperback 4.78488 -2.27802 -0.0371626
thorax -10.3652 -1.3933 -0.847894
lowerneck 11.0479 2.93729 2.44058
upperneck -10.3685 4.13297 -1.69238
head -4.83286 2.03382 -1.21937
rclavicle 7.49418e-014 -3.57812e-014
rhumerus -47.1264 11.4297 -89.6255
rradius 69.0727
rwrist -6.08981
rhand -25.7629 4.07107
rfingers 7.12502
rthumb 0.774766 -25.9073
lclavicle 7.49418e-014 -3.57812e-014
lhumerus -52.5847 -17.4727 89.0645
lradius 64.6567
lwrist 41.8966
lhand -26.4089 -4.83244
lfingers 7.12502
lthumb 0.150796 25.1473
rfemur -57.1337 2.31303 24.0249
rtibia 94.7011
rfoot -1.03497 -18.5207
rtoes 2.25236
lfemur -47.4021 10.2604 -26.1661
ltibia 33.6689
lfoot -2.46006 -2.67913
ltoes -3.64807
858
root 16.7491 15.225 -20.4078 -177.5 -66.0405 -173.831
lowerback 28.3881 -2.05109 2.95949
upperback 4.65933 -2.3229 -0.0306197
thorax -10.5755 -1.41327 -0.851978
lowerneck 9.86549 2.92846 2.43699
upperneck -9.28555 4.08808 -1.7495
head -4.30292 2.02399 -1.19577
rclavicle 2.0276e-014 -4.81059e-014
rhumerus -46.7773 11.5803 -89.8257
rradius 67.9403
rwrist -5.97332
rhand -25.8405 4.07023
rfingers 7.12502
rthumb 0.699749 -25.9084
lclavicle 2.0276e-014 -4.81059e-014
lhumerus -52.4103 -17.5007 89.2889
lradius 63.9523
lwrist 42.1245
lhand -26.3842 -4.87437
lfingers 7.12502
lthumb 0.174709 25.1053
rfemur -58.5357 2.78642 23.5512
rtibia 94.1718
rfoot -2.55603 -18.7074
rtoes 1.91875
lfemur -47.6952 10.163 -26.2858
ltibia 34.72
lfoot -2.37998 -2.69397
ltoes -2.1922
859
root 16.6318 15.2304 -20.4447 -177.119 -66.1464 -174.146
lowerback 28.5053 -2.07932 2.89153
upperback 4.5616 -2.36759 -0.0512109
thorax -10.7479 -1.42972 -0.814114
lowerneck 8.65799 2.92184 2.445
upperneck -7.86075 4.06118 -1.71606
head -4.04249 2.0098 -1.2597
rclavicle 2.16675e-014 2.34566e-014
rhumerus -46.2666 11.8358 -90.0111
rradius 66.6086
rwrist -5.94725
rhand -25.8319 4.11182
rfingers 7.12502
rthumb 0.708123 -25.8667
lclavicle 2.16675e-014 2.34566e-014
lhumerus -52.2418 -17.5308 89.518
lradius 63.3168
lwrist 42.3429
lhand -26.333 -4.88398
lfingers 7.12502
lthumb 0.224166 25.0956
rfemur -59.7409 3.27346 22.9357
rtibia 93.2485
rfoot -4.2116 -18.7713
rtoes 1.45229
lfemur -47.8557 10.0155 -26.464
ltibia 35.6337
lfoot -2.34836 -2.58276
ltoes -0.901736
860
root 16.5159 15.2399 -20.4842 -176.598 -66.2448 -174.627
lowerback 28.6051 -2.08157 2.71791
upperback 4.48375 -2.41464 -0.0813657
thorax -10.8857 -1.44359 -0.72613
lowerneck 7.37622 2.9199 2.45258
upperneck -6.72699 4.03036 -1.74306
head -3.39018 2.00365 -1.21124
rclavicle -5.96354e-014 6.75868e-015
rhumerus -45.6555 12.151 -90.1773
rradius 65.1522
rwrist -6.0081
rhand -25.7268 4.21442
rfingers 7.12502
rthumb 0.809605 -25.7638
lclavicle -5.96354e-014 6.75868e-015
lhumerus -52.0978 -17.5697 89.7622
lradius 62.7696
lwrist 42.4976
lhand -26.2265 -4.78917
lfingers 7.12502
lthumb 0.326999 25.1903
rfemur -60.7434 3.75615 22.23
rtibia 91.9308
rfoot -5.92079 -18.7443
rtoes 0.85389
lfemur -47.914 9.85321 -26.6904
ltibia 36.4135
lfoot -2.34001 -2.426
ltoes 0.196848
861
root 16.4029 15.2529 -20.5261 -176.004 -66.3524 -175.18
lowerback 28.6903 -2.06664 2.47733
upperback 4.40951 -2.46062 -0.108367
thorax -11.0091 -1.45388 -0.596822
lowerneck 6.11161 2.91834 2.45405
upperneck -5.5673 4.00366 -1.73596
head -2.7518 1.99633 -1.15282
rclavicle 2.06736e-014 -1.86858e-014
rhumerus -45.0146 12.4681 -90.3234
rradius 63.6455
rwrist -6.09952
rhand -25.544 4.41304
rfingers 7.12502
rthumb 0.986151 -25.5644
lclavicle 2.06736e-014 -1.86858e-014
lhumerus -51.9995 -17.6354 90.0333
lradius 62.3277
lwrist 42.5694
lhand -26.0892 -4.62176
lfingers 7.12502
lthumb 0.459634 25.3575
rfemur -61.5573 4.22467 21.4816
rtibia 90.23
rfoot -7.60404 -18.6216
rtoes 0.0113593
lfemur -47.9172 9.70346 -26.9455
ltibia 37.0779
lfoot -2.3428 -2.26546
ltoes 1.12304
